<svg width="627" height="371" viewBox="0 0 627 371" fill="none" xmlns="http://www.w3.org/2000/svg">
<rect width="627" height="248" fill="white"/>
<path d="M35.1299 50.9702L35.1263 50.9689C32.424 49.968 29.7484 49.0775 28.9787 48.8851L28.9535 48.8788L28.9291 48.8699C28.6369 48.7636 28.3773 48.6437 28.1773 48.4943C27.9724 48.3412 27.788 48.1242 27.743 47.8242C27.6996 47.5349 27.8029 47.2757 27.9278 47.0709C28.0539 46.8641 28.2367 46.6562 28.4464 46.4464C28.5414 46.3515 28.6567 46.2991 28.7274 46.2704C28.8107 46.2366 28.9056 46.2078 29.0051 46.1822C29.2052 46.1308 29.4667 46.0818 29.7826 46.0341C30.4167 45.9383 31.3141 45.8412 32.4716 45.7424C34.7889 45.5448 38.1807 45.3382 42.6638 45.1256C51.6318 44.7003 64.9861 44.2502 82.8874 43.8002L135.886 42.3002L135.973 42.2977L136.055 42.3247L145.855 45.5247L145.856 45.5248C148.682 46.4501 150.883 47.1964 152.533 47.8077C154.171 48.4147 155.303 48.9017 155.964 49.313C156.281 49.51 156.571 49.7375 156.716 50.0164C156.797 50.1722 156.841 50.3606 156.799 50.5629C156.759 50.7591 156.649 50.9092 156.534 51.0179C156.32 51.2207 156 51.3596 155.671 51.4689C155.325 51.5837 154.895 51.6883 154.4 51.7899L154.392 51.7914C153.648 51.9309 152.716 52.2629 151.829 52.6884C150.939 53.115 150.136 53.6153 149.636 54.07L149.63 54.0756L149.624 54.081C149.25 54.3983 148.862 54.9272 148.391 56.9211C147.922 58.9105 147.39 62.2607 146.659 68.112C145.197 79.8051 142.948 101.398 138.797 141.851L129.997 228.151L129.961 228.51L129.608 228.588L126.908 229.188L126.909 229.188L126.895 229.191C126.147 229.336 125.112 230.014 123.938 231.128C122.786 232.222 121.569 233.671 120.458 235.239C119.347 236.807 118.351 238.481 117.635 240.02C116.911 241.575 116.5 242.938 116.5 243.9V246.5H156.5H196.5V124V1.5H99H1.5V124V246.5H53C78.4068 246.5 91.3937 246.5 98.0322 246.263C101.37 246.144 103.042 245.965 103.877 245.719C104.291 245.597 104.409 245.483 104.445 245.433C104.476 245.39 104.5 245.325 104.5 245.1C104.5 244.606 104.41 244.114 104.267 243.72C104.131 243.344 103.977 243.134 103.876 243.052C103.859 243.048 103.838 243.043 103.811 243.037C103.722 243.018 103.593 242.993 103.425 242.964C103.089 242.905 102.611 242.829 102.01 242.739C100.81 242.559 99.1268 242.324 97.1159 242.052C93.0946 241.508 87.7682 240.821 82.3754 240.146C76.9827 239.471 71.525 238.809 67.2412 238.315C65.0991 238.069 63.252 237.864 61.8537 237.722C60.5388 237.587 59.6486 237.511 59.2749 237.501C59.2524 237.519 59.2205 237.547 59.1794 237.59C59.0611 237.713 58.9125 237.908 58.7468 238.168C58.4179 238.685 58.058 239.403 57.7688 240.174C57.4992 240.909 57.2711 241.525 56.9968 241.992C56.7077 242.484 56.3469 242.849 55.8021 243.055C55.2881 243.25 54.6574 243.285 53.8696 243.241C53.0763 243.198 52.0585 243.071 50.7415 242.897C49.2778 242.745 47.8619 242.518 46.7558 242.276C46.2028 242.155 45.7188 242.029 45.3416 241.904C45.1534 241.842 44.9835 241.778 44.8413 241.711C44.7101 241.649 44.5596 241.567 44.4464 241.454L44.4483 241.452C44.4116 241.412 44.3734 241.362 44.3585 241.337C44.3467 241.314 44.3298 241.276 44.3229 241.258C44.3099 241.222 44.3019 241.189 44.2972 241.168C44.2874 241.124 44.2798 241.075 44.2736 241.028C44.2608 240.932 44.2481 240.8 44.2351 240.641C44.209 240.319 44.1799 239.854 44.1479 239.258C44.084 238.063 44.008 236.325 43.9219 234.118C43.7495 229.701 43.5362 223.396 43.2971 215.775C42.819 200.533 42.2377 180.026 41.6752 158.838C40.5503 116.467 39.5 71.3584 39.5 60.2V52.5508L35.1299 50.9702ZM103.91 243.061C103.914 243.063 103.916 243.063 103.916 243.063C103.916 243.063 103.914 243.063 103.91 243.061ZM59.3082 237.478C59.3085 237.478 59.3072 237.479 59.3041 237.48C59.3066 237.479 59.308 237.478 59.3082 237.478Z" fill="#A01F60" stroke="black"/>
<path d="M335.826 122.782L352.316 122.2C357.025 122.049 361.41 121.774 364.683 121.473C366.319 121.322 367.684 121.165 368.674 121.013C369.169 120.937 369.579 120.861 369.887 120.786C370.041 120.748 370.179 120.708 370.294 120.665C370.389 120.63 370.54 120.567 370.654 120.454C370.898 120.21 371.029 119.894 370.987 119.538C370.948 119.212 370.771 118.919 370.55 118.669C370.111 118.171 369.343 117.663 368.334 117.158C366.617 116.201 365.239 114.601 364.884 113.274C364.319 111.022 362.494 109.639 358.309 107.746C358.308 107.745 358.307 107.745 358.306 107.744L352.711 105.146L352.615 105.102L352.509 105.1L286.51 103.9C282.351 103.82 278.262 103.741 274.281 103.664C243.585 103.072 219.24 102.602 217.809 102.6L215.5 102.518V52V1.5H313.5H411.5V124V246.5H313.5H215.5V191.5V136.5H249.3C268.198 136.5 287.776 136.8 292.766 137.099C292.767 137.099 292.769 137.099 292.77 137.099L301.508 137.771L303.517 145.328L303.517 145.331C307.014 158.216 311.608 179.894 312.904 189.566L335.826 122.782ZM335.826 122.782L336.199 129.874L336.2 129.878C337.399 156.971 339.5 211.786 339.5 217.8V225V225.5H339H335C333.882 225.5 332.849 225.424 332.082 225.279C331.703 225.207 331.359 225.113 331.098 224.986C330.967 224.923 330.83 224.839 330.72 224.723C330.605 224.603 330.5 224.426 330.5 224.2C330.5 224.201 330.498 224.161 330.489 224.051C330.481 223.953 330.469 223.817 330.452 223.644C330.42 223.3 330.371 222.814 330.309 222.204C330.184 220.983 330.003 219.266 329.778 217.179C329.328 213.005 328.703 207.356 328.003 201.257L328.003 201.256C326.154 184.76 324.18 169.718 322.518 158.964C321.688 153.585 320.936 149.287 320.319 146.419C320.151 145.636 319.993 144.966 319.848 144.412C319.85 144.482 319.852 144.555 319.854 144.629C319.896 146.06 319.993 148.098 320.137 150.596C320.424 155.592 320.899 162.413 321.498 169.86L321.499 169.863C322.049 177.313 322.549 184.189 322.911 189.277C323.272 194.345 323.5 197.676 323.5 198C323.5 198.414 323.238 198.7 322.959 198.873C322.685 199.044 322.324 199.155 321.929 199.229C321.131 199.378 320.032 199.4 318.762 199.299C318.761 199.299 318.761 199.298 318.76 199.298L314.564 198.999L314.158 198.97L314.104 198.566L312.904 189.566L335.826 122.782Z" fill="#EF4134" stroke="black"/>
<path d="M625.5 246.5H611C603.623 246.5 599.926 246.498 598.01 246.218C597.049 246.077 596.659 245.88 596.467 245.681C596.275 245.485 596.196 245.21 596.093 244.614L596.089 244.596L596.085 244.579C596.057 244.466 596.006 244.124 595.934 243.53C595.865 242.952 595.78 242.169 595.682 241.202C595.485 239.271 595.235 236.617 594.948 233.43C594.373 227.057 593.648 218.559 592.898 209.46C590.3 177.083 590.3 175.601 590.9 113.505V113.504C591.2 78.8966 591.8 48.0369 592.097 44.9507C592.098 44.9499 592.098 44.949 592.098 44.9482L592.697 39.3533L592.753 38.8343L592.232 38.801L582.839 38.2015C582.838 38.2014 582.837 38.2014 582.836 38.2013C577.72 37.8002 563.808 37.3 552.017 36.9003L552.016 36.9003L530.416 36.2003L529.936 36.1847L529.901 36.6638L528.201 60.0614C528.201 60.0619 528.201 60.0624 528.201 60.063C527.202 72.9554 525.703 88.3448 525.004 94.4397C521.903 118.441 520.502 132.154 519.701 146.77M625.5 246.5H457.5M625.5 246.5V124V1.5H528H430.5V124V246.5M625.5 246.5H430.5M519.701 146.77C519.701 146.771 519.701 146.772 519.701 146.773L520.2 146.8L519.701 146.77C519.701 146.77 519.701 146.77 519.701 146.77ZM519.701 146.77C519.451 150.967 519.176 154.813 518.939 157.633C518.821 159.044 518.712 160.195 518.62 161.003C518.575 161.409 518.534 161.722 518.499 161.937C518.493 161.978 518.486 162.015 518.481 162.046M518.481 162.046C518.481 162.046 518.481 162.046 518.481 162.046C518.55 162.026 518.589 162.011 518.606 162.004C518.614 162 518.607 162.003 518.591 162.013C518.585 162.017 518.569 162.028 518.548 162.048C518.536 162.059 518.522 162.073 518.508 162.09C518.499 162.102 518.491 162.113 518.485 162.123C518.475 162.138 518.468 162.15 518.465 162.156C518.456 162.175 518.451 162.188 518.45 162.191C518.448 162.197 518.45 162.191 518.456 162.167C518.463 162.138 518.471 162.099 518.481 162.046ZM518.481 162.046C518.344 162.086 518.141 162.133 517.869 162.186C517.327 162.291 516.56 162.411 515.619 162.542C513.739 162.804 511.194 163.103 508.446 163.403L508.445 163.403C496.281 164.755 485.783 166.508 477.618 168.514C473.536 169.518 470.029 170.586 467.184 171.703C464.347 172.817 462.139 173.991 460.679 175.217L460.672 175.222L460.673 175.222L457.673 177.822L457.5 177.972V178.2V212.6V246.5M457.5 246.5H444H430.5M457.5 246.5H430.5M592.2 39.3L591.703 39.2467L591.701 39.2681L592.2 39.3ZM592.2 39.3L592.168 39.799L592.147 39.7976L592.2 39.3Z" fill="#F4921A" stroke="black"/>
<path d="M534.932 164.118L536.5 164.545V147.4C536.5 136.986 537.201 125.063 538.004 118.935L538.004 118.935L538.005 118.927C539.901 106.055 541.3 85.9785 541.7 67.9902C541.8 62.0294 541.799 58.6897 541.603 56.8017C541.504 55.8507 541.361 55.338 541.202 55.0543C541.128 54.9226 541.055 54.8497 540.987 54.8029C540.919 54.756 540.832 54.7192 540.706 54.6913C540.471 54.6536 540.304 54.6705 540.178 54.7166C540.054 54.7618 539.929 54.8494 539.803 55.0216C539.529 55.3931 539.292 56.0878 539.093 57.2822C538.904 58.4166 538.108 65.6217 537.011 75.5362C536.385 81.2002 535.661 87.7486 534.897 94.5544C532.848 113.798 531.449 131.162 530.849 143.711C530.55 149.988 530.45 155.05 530.568 158.538C530.628 160.285 530.741 161.616 530.905 162.502C530.988 162.949 531.078 163.249 531.163 163.425C531.179 163.458 531.193 163.483 531.204 163.501C532.094 163.524 533.67 163.826 534.912 164.113L534.922 164.115L534.932 164.118ZM531.237 163.545C531.237 163.545 531.234 163.542 531.229 163.538C531.234 163.543 531.237 163.545 531.237 163.545Z" fill="#F4921A" stroke="black"/>
<path d="M70.3105 56.9877L70.3106 56.9878L70.3008 56.9898C66.9547 57.6787 61.5992 59.6597 58.4195 61.1494L53 63.9066V89.5V115.016L83.0164 116L83.0178 116C91.4171 116.3 99.0659 116.55 104.64 116.713C107.427 116.794 109.694 116.853 111.276 116.886C112.067 116.902 112.686 116.912 113.111 116.915C113.213 116.915 113.302 116.915 113.38 116.915C113.386 116.869 113.392 116.818 113.399 116.763C113.443 116.405 113.499 115.881 113.565 115.211C113.697 113.872 113.871 111.965 114.071 109.668C114.47 105.074 114.977 98.9284 115.477 92.6727C116.47 80.2468 117.436 67.4203 117.499 65.4313C117.494 65.4225 117.486 65.4095 117.474 65.3921C117.428 65.3276 117.346 65.2373 117.214 65.1223C116.95 64.8932 116.545 64.6163 116.009 64.3015C114.942 63.6746 113.42 62.9372 111.629 62.1723C108.049 60.6436 103.448 59.0273 99.3759 57.9844L99.3722 57.9834C90.7397 55.7013 77.722 55.3077 70.3105 56.9877Z" fill="#A01F60" stroke="black"/>
<path d="M548.199 66.533C548.199 66.5331 548.199 66.5331 548.199 66.5332C547.399 78.6366 545.099 109.338 543.499 129.539C543 136.024 542.675 145.287 542.587 152.818C542.551 155.993 542.556 158.854 542.608 161.067C542.631 160.674 542.653 160.259 542.676 159.824C542.85 156.407 543 151.789 543.1 146.792C543.2 136.686 544 123.96 544.906 118.421C546.727 106.633 548.55 76.9481 548.337 64.4635L548.199 66.533Z" fill="#F4921A" stroke="black"/>
<path d="M551.997 109.052L551.996 109.06L551.995 109.067C550.899 117.14 550.05 131.418 549.687 143.765C549.506 149.936 549.447 155.614 549.539 159.783C549.585 161.869 549.669 163.567 549.792 164.757C549.798 164.81 549.803 164.862 549.809 164.913C549.918 164.062 550.024 162.913 550.126 161.489C550.376 158.025 550.6 152.983 550.8 146.785C551.1 135.584 552.001 121.76 552.906 115.925C554.401 105.752 556.5 73.88 556.5 61.2C556.5 59.0855 556.394 57.5683 556.231 56.6174C556.189 56.3767 556.146 56.1825 556.103 56.0297C555.993 56.3105 555.876 56.7124 555.759 57.2435C555.508 58.3828 555.273 60.0512 555.099 62.2385C554.799 66.2349 554.099 77.6289 553.499 87.5303C552.899 97.4272 552.199 107.139 551.997 109.052Z" fill="#F4921A" stroke="black"/>
<path d="M563.075 58.157C563.067 57.5602 563.051 57.0565 563.027 56.6405C563.019 56.7158 563.01 56.8014 563 56.8979C562.961 57.2862 562.916 57.8142 562.864 58.4674C562.761 59.7732 562.636 61.5704 562.499 63.7317C562.224 68.0539 561.899 73.8264 561.599 80.0242L561.599 80.0282C560.899 92.4273 559.799 109.036 558.998 117.048C557.999 127.636 557.275 140.374 556.962 150.465C556.806 155.512 556.753 159.889 556.82 163.002C556.851 164.436 556.907 165.592 556.989 166.416C557.092 165.74 557.179 164.809 557.251 163.608C557.425 160.686 557.5 156.249 557.5 150.2C557.5 138.482 558.201 127.361 559.504 117.438C560.502 109.151 561.901 91.9672 562.4 79.0806L562.401 79.0766C562.901 68.4232 563.125 61.714 563.075 58.157Z" fill="#F4921A" stroke="black"/>
<path d="M564.538 167.403C564.611 166.672 564.678 165.756 564.738 164.66C564.925 161.284 565.05 156.244 565.1 149.696L565.1 149.696C565.2 136.688 565.8 125.364 566.804 117.933L566.805 117.928C568.352 107.301 569.576 91.57 570.138 78.491C570.419 71.952 570.534 66.086 570.442 61.8593C570.396 59.7431 570.299 58.0528 570.147 56.8985C570.085 56.4241 570.015 56.0582 569.943 55.7971C569.894 55.9178 569.843 56.0667 569.795 56.244C569.621 56.8804 569.5 57.7849 569.5 58.8C569.5 65.0259 566.598 107.743 565.397 118.852C564.7 125.628 564.275 138.207 564.187 149.166C564.144 154.644 564.184 159.708 564.317 163.431C564.374 165.033 564.448 166.381 564.538 167.403Z" fill="#F4921A" stroke="black"/>
<path d="M577.097 60.2508L577.097 60.2514C576.799 63.1362 576.299 70.924 575.999 77.5227C575.699 84.1313 574.599 100.337 573.498 113.54C572.499 126.737 571.4 145.025 571.2 154.211L571.2 154.212L570.809 170.622L574.028 171.517C575.027 171.766 576.019 172.014 576.825 172.2C577.229 172.293 577.581 172.37 577.86 172.423C577.959 172.442 578.045 172.456 578.118 172.468C578.146 172.332 578.175 172.144 578.201 171.901C578.272 171.247 578.319 170.281 578.338 169.055C578.375 166.607 578.3 163.169 578.101 159.226C577.699 151.701 577.9 137.783 578.401 128.473L578.401 128.468C579.051 118.275 579.875 100.38 580.488 84.9801C580.794 77.281 581.047 70.2079 581.199 65.0354C581.274 62.4487 581.325 60.3394 581.344 58.8655C581.353 58.1278 581.355 57.5533 581.348 57.1591C581.345 57.0295 581.342 56.9225 581.338 56.8373C580.925 56.6544 580.079 56.3102 579.179 56.0851L579.167 56.0823L579.156 56.0789C578.645 55.9257 578.342 55.862 578.138 55.8755C578.05 55.8812 578 55.9007 577.965 55.9229C577.928 55.946 577.878 55.9912 577.818 56.0922C577.687 56.3128 577.564 56.7107 577.444 57.4135C577.327 58.1025 577.223 59.0243 577.097 60.2508Z" fill="#F4921A" stroke="black"/>
<path d="M52.9699 120.371L52.9651 120.384L52.9644 120.386C52.9646 120.385 52.9647 120.385 52.9648 120.385C52.9658 120.385 52.9556 120.424 52.9419 120.529C52.9265 120.648 52.9109 120.812 52.8955 121.024C52.865 121.445 52.8371 122.032 52.8122 122.767C52.7624 124.236 52.7249 126.281 52.7 128.755C52.65 133.701 52.65 140.348 52.7 147.495C52.7 147.496 52.7 147.496 52.7 147.496L52.9947 173.036L81.5376 175.201C81.5377 175.201 81.5377 175.201 81.5378 175.201C89.4859 175.801 96.7588 176.301 102.069 176.638C104.725 176.807 106.888 176.935 108.4 177.015C109.156 177.055 109.747 177.082 110.154 177.097C110.242 177.1 110.321 177.102 110.39 177.104C110.4 177.028 110.411 176.94 110.423 176.839C110.469 176.424 110.525 175.826 110.586 175.069C110.709 173.556 110.858 171.423 111.021 168.874C111.348 163.777 111.732 157.023 112.088 150.249C112.444 143.475 112.772 136.683 112.986 131.511C113.093 128.924 113.172 126.744 113.211 125.175C113.23 124.39 113.24 123.761 113.239 123.311C113.238 123.086 113.235 122.911 113.229 122.785C113.228 122.76 113.226 122.738 113.225 122.718C113.191 122.698 113.141 122.673 113.069 122.644C112.864 122.561 112.545 122.473 112.084 122.385C111.166 122.209 109.771 122.048 107.787 121.899C103.826 121.6 97.5869 121.35 88.2865 121.1L88.2853 121.1C74.6991 120.7 61.0716 120.2 58.2467 119.897L58.2467 119.897L58.238 119.896C56.2362 119.646 54.9461 119.58 54.1188 119.695C53.7108 119.752 53.454 119.848 53.2886 119.957C53.1347 120.059 53.0362 120.188 52.9699 120.371Z" fill="#A01F60" stroke="black"/>
<path d="M109.134 183.971C109.136 183.865 109.137 183.774 109.136 183.697C109.076 183.687 109.007 183.676 108.929 183.663C108.58 183.61 108.075 183.544 107.432 183.468C106.147 183.317 104.329 183.128 102.141 182.915C97.7639 182.489 91.9131 181.967 85.8956 181.461C73.8448 180.447 61.1731 179.5 58.3 179.5H54.5V206C54.5 213.398 54.55 220.145 54.6249 225.042C54.6624 227.491 54.7061 229.475 54.7528 230.845C54.7762 231.532 54.8002 232.059 54.8242 232.413C54.8274 232.459 54.8305 232.502 54.8335 232.541C54.8934 232.547 54.9599 232.554 55.0328 232.562C55.3887 232.601 55.9009 232.659 56.552 232.733C57.8543 232.881 59.7143 233.097 61.996 233.366C66.559 233.904 72.8095 234.654 79.66 235.504C86.4582 236.303 92.6802 237.003 97.2393 237.478C99.5195 237.715 101.381 237.896 102.69 238.005C103.345 238.059 103.857 238.096 104.212 238.112C104.282 238.115 104.344 238.117 104.4 238.119C104.414 238.033 104.43 237.931 104.447 237.813C104.508 237.389 104.585 236.781 104.674 236.011C104.851 234.472 105.078 232.303 105.334 229.713C105.846 224.535 106.477 217.68 107.077 210.831C107.677 203.982 108.245 197.141 108.633 191.988C108.826 189.41 108.974 187.258 109.059 185.739C109.101 184.978 109.126 184.382 109.134 183.971ZM54.4 232.5C54.4098 232.5 54.4219 232.5 54.4355 232.501C54.4239 232.5 54.4121 232.5 54.4 232.5ZM57.4413 230.997L57.0055 230.945L57 230.506L56.7 206.206L56.7 206.204L56.5 182.004L56.4959 181.5H57H60.2C62.0241 181.5 73.2483 182.202 85.038 183.101C90.9386 183.552 96.3397 183.977 100.279 184.302C102.248 184.464 103.853 184.602 104.973 184.705C105.532 184.757 105.973 184.8 106.278 184.834C106.43 184.851 106.552 184.866 106.641 184.878C106.684 184.885 106.727 184.891 106.763 184.899C106.774 184.901 106.79 184.904 106.807 184.909C106.815 184.911 106.824 184.914 106.833 184.916C106.847 184.92 106.87 184.928 106.898 184.94L106.899 184.941C106.911 184.946 106.951 184.964 106.998 184.999C107.103 185.076 107.147 185.172 107.16 185.2C107.179 185.244 107.189 185.281 107.193 185.301C107.203 185.343 107.207 185.38 107.209 185.403C107.213 185.451 107.214 185.507 107.214 185.56C107.214 185.672 107.208 185.826 107.199 186.014C107.181 186.394 107.145 186.94 107.095 187.626C106.994 189 106.833 190.95 106.631 193.284C106.226 197.951 105.654 204.159 105.06 210.373C104.466 216.586 103.851 222.806 103.358 227.499C103.112 229.845 102.897 231.811 102.73 233.204C102.647 233.9 102.575 234.457 102.518 234.847C102.489 235.042 102.463 235.201 102.44 235.318C102.429 235.376 102.417 235.432 102.403 235.48C102.397 235.504 102.387 235.535 102.374 235.568L102.373 235.57C102.366 235.589 102.331 235.676 102.254 235.754C102.164 235.844 102.063 235.876 102.036 235.885C101.994 235.898 101.955 235.905 101.929 235.909C101.876 235.918 101.819 235.921 101.767 235.923C101.661 235.927 101.522 235.926 101.359 235.92C101.03 235.908 100.563 235.879 99.979 235.834C98.8089 235.745 97.1449 235.591 95.112 235.385C91.0455 234.972 85.4924 234.347 79.4399 233.596C79.4394 233.596 79.439 233.596 79.4385 233.596L57.4413 230.997Z" fill="#A01F60" stroke="black"/>
<path d="M490.395 201.911L490.398 201.911C498.049 200.31 502.987 199.213 505.648 198.516C505.862 198.46 506.06 198.407 506.243 198.357C506.057 198.33 505.851 198.299 505.625 198.265C504.647 198.116 503.295 197.9 501.668 197.631C498.416 197.093 494.065 196.343 489.413 195.492C489.051 195.431 488.69 195.369 488.332 195.308C484.042 194.578 480.062 193.901 477.018 193.393C475.368 193.118 473.995 192.894 472.998 192.738C472.499 192.66 472.096 192.599 471.8 192.559C471.652 192.538 471.534 192.523 471.445 192.513C471.4 192.508 471.365 192.505 471.338 192.502C471.314 192.5 471.302 192.5 471.3 192.5C471.3 192.5 471.3 192.5 471.3 192.5C471.3 192.5 471.299 192.5 471.299 192.5C471.297 192.5 471.294 192.499 471.28 192.509C471.258 192.525 471.212 192.57 471.153 192.674C471.031 192.889 470.908 193.266 470.805 193.86C470.601 195.04 470.5 196.903 470.5 199.6C470.5 201.275 470.513 202.571 470.556 203.569C470.599 204.574 470.673 205.242 470.784 205.676C470.899 206.122 471.019 206.19 471.048 206.203C471.106 206.229 471.253 206.247 471.647 206.124C472.139 205.961 474.522 205.405 477.891 204.65C481.292 203.887 485.744 202.911 490.395 201.911Z" fill="#F4921A" stroke="black"/>
<path d="M553.7 213.916L553.7 213.917L553.426 222.127L557.998 220.143C560.898 218.843 567.293 215.945 572.188 213.647L572.191 213.646L580.755 209.701L580.104 204.867L580.103 204.859L580.103 204.851C579.804 201.96 579.5 198.531 579.5 197.2C579.5 196.634 579.428 196.139 579.324 195.816C579.299 195.737 579.274 195.677 579.253 195.633C579.192 195.652 579.117 195.677 579.027 195.707C578.809 195.78 578.514 195.883 578.149 196.013C577.421 196.273 576.423 196.638 575.223 197.081C572.825 197.968 569.627 199.168 566.178 200.467C566.177 200.468 566.177 200.468 566.176 200.468L553.989 205.148L553.7 213.916Z" fill="#F4921A" stroke="black"/>
<path d="M532.442 202.874L532.442 202.874L532.432 202.871C532.364 202.847 532.327 202.842 532.312 202.841C532.296 202.855 532.26 202.896 532.213 202.999C532.041 203.366 531.887 204.151 531.774 205.687C531.55 208.714 531.5 214.342 531.5 224.5V246.562L535.064 246.301L538.696 246.036L538.6 234.007C538.6 234.007 538.6 234.006 538.6 234.006C538.5 227.111 538.2 217.324 537.901 212.234C537.6 208.267 537.377 206.023 537.042 204.766C536.875 204.139 536.699 203.84 536.54 203.692C536.404 203.565 536.229 203.5 535.9 203.5C534.931 203.5 533.376 203.186 532.442 202.874ZM532.32 202.835C532.32 202.835 532.319 202.835 532.318 202.836C532.319 202.835 532.32 202.835 532.32 202.835Z" fill="#F4921A" stroke="black"/>
<path d="M469.399 224.132L469.399 224.132L469.975 215.012L492.102 210.39L469.399 224.132ZM469.399 224.132L469.399 224.138M469.399 224.132L469.399 224.138M469.399 224.138C468.999 229.326 468.7 236.514 468.6 240.21M469.399 224.138L468.6 240.21M468.6 240.21L468.507 246.5H495.1H521.781L521.1 228.219C521.1 228.219 521.1 228.219 521.1 228.219C520.9 223.072 520.651 218.152 520.413 214.356C520.295 212.458 520.179 210.844 520.075 209.624C519.97 208.389 519.879 207.599 519.813 207.315C519.636 206.582 519.497 206.253 519.125 206.049C518.689 205.81 517.839 205.691 516.021 205.86C512.432 206.194 505.57 207.586 492.102 210.389L468.6 240.21Z" fill="#F4921A" stroke="black"/>
<path d="M567.209 224.854L567.209 224.854L553.988 230.926L553.7 238.818L553.419 246.5H569C575.052 246.5 579.033 246.425 581.497 246.227C582.736 246.127 583.556 245.999 584.056 245.847C584.308 245.77 584.439 245.699 584.497 245.652C584.498 245.651 584.499 245.651 584.499 245.65C584.49 245.245 584.384 244.009 584.21 242.246C584.031 240.42 583.784 238.065 583.515 235.579C582.979 230.612 582.355 225.123 582.005 222.273C581.807 221.136 581.587 220.113 581.371 219.394C581.269 219.053 581.175 218.804 581.094 218.648C581.054 218.662 581.008 218.679 580.955 218.699C580.736 218.782 580.431 218.905 580.047 219.067C579.28 219.39 578.216 219.857 576.929 220.432C574.357 221.58 570.909 223.154 567.209 224.854ZM581.263 218.594C581.263 218.594 581.261 218.595 581.259 218.595C581.262 218.595 581.263 218.594 581.263 218.594Z" fill="#F4921A" stroke="black"/>
<path d="M68.7953 346.3L68.793 346.3L47.493 346L47 345.993V345.5V336.5V327.5V327.008L47.4918 327L65.7918 326.7L65.7945 326.7L83.5 326.505V320V313.495L65.7945 313.3L65.7918 313.3L47.4918 313L47 312.992V312.5V304.5V296.5V296.007L47.4928 296L68.2928 295.7L68.2952 295.7L88.5 295.505V289V282.5H59H29.5V321V359.5H59.5H89.5V353V346.495L68.7953 346.3Z" fill="white" stroke="black"/>
<path d="M232.5 302.5V302V294.7C232.5 292.66 232.575 290.75 232.698 289.305C232.76 288.581 232.833 287.984 232.914 287.548C232.954 287.33 232.994 287.164 233.031 287.048C233.042 287.014 233.051 286.989 233.059 286.97C233.079 286.964 233.105 286.956 233.137 286.947C233.261 286.914 233.439 286.881 233.675 286.85C234.146 286.789 234.794 286.743 235.582 286.712C237.154 286.65 239.242 286.65 241.485 286.7C241.486 286.7 241.488 286.7 241.489 286.7L249.018 286.982L249.3 294.219L249.3 294.219L249.6 302.019L249.619 302.5H250.1H257.5H264.5V308.5V314.5H257.5H250H249.5V315V328.8C249.5 335.087 249.549 338.649 249.829 340.838C249.97 341.939 250.173 342.73 250.478 343.361C250.788 344.002 251.187 344.446 251.666 344.872C253.955 346.941 257.969 347.301 262.14 346.08M232.5 302.5L262 345.6M232.5 302.5H232H227.5H223.5M232.5 302.5H223.5M262.14 346.08C262.14 346.08 262.14 346.08 262.14 346.08L262 345.6M262.14 346.08C262.14 346.08 262.14 346.08 262.14 346.08L262 345.6M262.14 346.08C262.744 345.904 263.134 345.824 263.432 345.844C263.685 345.861 263.89 345.951 264.124 346.217C264.381 346.51 264.656 347.001 264.999 347.807C265.339 348.605 265.728 349.666 266.229 351.068L266.23 351.07L268.294 356.794M262 345.6C264.4 344.9 264.7 345.3 266.7 350.9L268.9 357M268.294 356.794L268.63 356.579L268.9 357M268.294 356.794L266.13 358.179L266.12 358.186L266.109 358.193C265.497 358.631 264.233 359.089 262.574 359.476C260.939 359.857 258.991 360.153 257.065 360.301C244.801 361.091 235.997 356.153 233.583 347.17L233.581 347.163L233.581 347.163C233.299 346.175 233.025 343.683 232.824 340.395C232.625 337.13 232.5 333.14 232.5 329.2V315V314.5H232H227.5H223.5V308.5V302.5M268.294 356.794L268.43 357.17L268.9 357M268.9 357L266.4 358.6M266.4 358.6C265 359.6 261 360.5 257.1 360.8C244.7 361.6 235.6 356.6 233.1 347.3C232.5 345.2 232 337.1 232 329.2V315.5V315L266.4 358.6ZM266.4 358.6L223.5 302.5M265 302H264.5L265 302.5V302ZM265 315V314.5L264.5 315H265ZM233.006 286.991C233.006 286.991 233.007 286.991 233.008 286.99C233.006 286.991 233.005 286.992 233.006 286.991Z" fill="white" stroke="black"/>
<g filter="url(#filter0_d_7:67)">
<path d="M309 328.9V363H311.5H314L314.2 334.7L314.5 306.5L328.1 330C335.7 342.9 342.4 353.6 343.2 353.8C344 354 349.7 345.1 358.5 329.9L372.5 305.6L372.8 334.3L373 363H375.5H378V329V295H375.8C373.9 295.1 371.1 299.3 358.5 321.2C344.4 345.8 343.5 347.1 342.1 345.1C341.4 343.9 334.5 332.3 327 319.2C316.6 301.3 312.7 295.4 311.1 295.2L309 294.9V328.9Z" fill="#A01F60"/>
</g>
<path d="M118.924 360.514C125.176 360.97 131.506 359.509 135.676 356.019L138.673 353.422L139.5 352.705V353.8V356.9V359.5H147H154.5V338.7C154.5 328.034 154.499 322.718 154.165 319.387C153.837 316.115 153.193 314.804 151.854 312.125C150.329 309.126 148.597 306.889 146.343 305.132C144.084 303.371 141.273 302.069 137.559 300.98L137.556 300.979C134.62 300.098 130.597 299.65 126.436 299.638C122.279 299.625 118.022 300.047 114.622 300.885C111.142 301.78 108.072 302.821 105.794 303.855C104.654 304.373 103.726 304.883 103.047 305.364C102.357 305.853 101.992 306.266 101.87 306.572C101.843 306.657 101.83 306.883 101.904 307.299C101.974 307.7 102.11 308.2 102.301 308.772C102.681 309.912 103.262 311.288 103.912 312.618C104.562 313.949 105.272 315.217 105.905 316.145C106.223 316.611 106.511 316.975 106.754 317.218C106.875 317.339 106.973 317.418 107.046 317.464C107.082 317.486 107.105 317.496 107.115 317.499C107.172 317.495 107.313 317.47 107.556 317.398C107.805 317.325 108.117 317.217 108.473 317.083C109.181 316.814 110.04 316.446 110.878 316.052C116.426 313.153 122.641 312.437 127.742 313.523C132.831 314.608 136.922 317.522 137.985 321.979L138.684 324.675L138.841 325.28L138.216 325.3L125.316 325.7L125.314 325.7C114.51 326 111.913 326.402 108.024 328.347L108.024 328.347L108.017 328.351C97.9148 333.207 95.4973 345.415 102.971 353.664L102.971 353.665C106.609 357.691 112.67 360.057 118.924 360.514ZM131.597 348.06L131.596 348.06C127.126 349.961 122.451 349.769 119.147 348.189C117.493 347.398 116.161 346.247 115.392 344.813C114.618 343.368 114.434 341.671 115.024 339.846C115.636 337.955 117.111 336.638 119.522 335.791C121.913 334.951 125.28 334.55 129.794 334.5V334.5H129.8H138H138.5V335V338.3C138.5 342.729 135.953 346.193 131.597 348.06Z" fill="white" stroke="black"/>
<path d="M185.632 300.082L185.632 300.082L185.625 300.084C179.463 301.674 176.751 302.947 173.735 305.671L173.735 305.671L173.729 305.676C171.36 307.75 169.815 309.62 168.855 311.732C167.895 313.844 167.5 316.241 167.5 319.4C167.5 321.904 167.604 323.319 168.068 324.548C168.531 325.776 169.37 326.864 170.972 328.666C172.923 330.812 174.885 332.265 177.919 333.447C180.978 334.638 185.132 335.557 191.48 336.606C195.885 337.307 199.017 338.168 200.929 339.294C201.891 339.861 202.587 340.519 202.96 341.3C203.34 342.093 203.358 342.951 203.077 343.849L203.077 343.85C202.583 345.419 201.111 346.517 199.186 347.223C197.246 347.934 194.743 348.287 191.99 348.3C186.483 348.325 179.853 346.986 174.475 344.246C174.474 344.246 174.474 344.246 174.473 344.246L171.144 342.581L168.557 348.403L165.944 354.283L168.637 355.76C170.282 356.63 174.929 358.216 179.007 359.112L179.009 359.112C186.092 360.697 193.699 360.746 200.259 359.533C206.839 358.317 212.277 355.848 215.117 352.478C220.286 346.334 220.636 337.81 215.921 332.326L215.921 332.326L215.916 332.32C214.201 330.262 212.633 328.916 210.292 327.842C207.926 326.757 204.754 325.941 199.806 324.991L199.804 324.991C193.958 323.842 190.223 322.985 187.809 322.134C185.398 321.284 184.198 320.403 183.559 319.136C183.133 318.387 182.923 317.681 183.101 316.924C183.272 316.193 183.783 315.51 184.546 314.746C186.635 312.658 190.323 311.65 194.497 311.625C198.694 311.6 203.489 312.565 207.901 314.542C207.902 314.543 207.904 314.543 207.905 314.544L211.848 316.246L214.144 311.194C214.842 309.65 215.489 308.131 215.974 306.926C216.216 306.323 216.417 305.801 216.562 305.395C216.714 304.973 216.791 304.716 216.807 304.618L216.807 304.618L216.809 304.606C216.813 304.586 216.824 304.473 216.589 304.241C216.362 304.017 215.981 303.762 215.437 303.489C214.356 302.948 212.755 302.399 210.812 301.897C206.936 300.893 201.799 300.099 196.985 299.9C194.389 299.85 191.797 299.825 189.719 299.85C188.678 299.862 187.771 299.887 187.058 299.927C186.327 299.968 185.848 300.023 185.632 300.082Z" fill="white" stroke="black"/>
<path d="M413 312.9C407.9 314.5 404.1 317.1 400.8 321C392.9 330.1 392.9 344.9 400.8 354C406.1 360.3 411.1 362.5 420 362.5C428.5 362.5 433.3 360.5 438.7 354.8C443.2 350.2 445 345.2 445 337.5C445 327 440.5 319.4 431.5 314.8C427.2 312.6 417.1 311.5 413 312.9ZM430.2 319.1C432.3 320.2 435.2 322.9 436.7 325.2C439.2 328.9 439.5 330.3 439.5 337.5C439.5 344.7 439.2 346.1 436.7 349.8C428.7 362 409.1 361 402.3 348.1C397.4 338.8 400.2 325.6 408.1 320.3C415.1 315.7 422.6 315.3 430.2 319.1Z" fill="#A01F60"/>
<path d="M413 312.9C407.9 314.5 404.1 317.1 400.8 321C392.9 330.1 392.9 344.9 400.8 354C406.1 360.3 411.1 362.5 420 362.5C428.5 362.5 433.3 360.5 438.7 354.8C443.2 350.2 445 345.2 445 337.5C445 327 440.5 319.4 431.5 314.8C427.2 312.6 417.1 311.5 413 312.9ZM430.2 319.1C432.3 320.2 435.2 322.9 436.7 325.2C439.2 328.9 439.5 330.3 439.5 337.5C439.5 344.7 439.2 346.1 436.7 349.8C428.7 362 409.1 361 402.3 348.1C397.4 338.8 400.2 325.6 408.1 320.3C415.1 315.7 422.6 315.3 430.2 319.1Z" stroke="black"/>
<path d="M449 312.8C449 313.3 453.9 324.6 460 338.1C470.3 361.1 471.1 362.5 473.6 362.5C473.91 362.5 474.182 362.507 474.446 362.464C476.564 362.118 478.149 358.514 494.6 321.7L498.9 311.9L496.4 312.2C494 312.5 492.8 314.6 484 334.3C478.7 346.3 474.1 356.3 473.8 356.6C473.5 356.8 468.8 346.9 463.4 334.5C454.7 314.8 453.2 312 451.3 312C450 312 449 312.4 449 312.8Z" fill="#A01F60"/>
<path d="M449 312.8C449 313.3 453.9 324.6 460 338.1C470.3 361.1 471.1 362.5 473.6 362.5C473.91 362.5 474.182 362.507 474.446 362.464C476.564 362.118 478.149 358.514 494.6 321.7L498.9 311.9L496.4 312.2C494 312.5 492.8 314.6 484 334.3C478.7 346.3 474.1 356.3 473.8 356.6C473.5 356.8 468.8 346.9 463.4 334.5C454.7 314.8 453.2 312 451.3 312C450 312 449 312.4 449 312.8Z" stroke="black"/>
<path d="M519.8 313C503.3 317.9 497.3 340.6 508.8 354C515.1 361.5 525.4 364.5 535.7 362.1C541.9 360.6 548.6 355.4 547 353.4C546 352.3 545.2 352.5 542.2 354.5C537.6 357.5 529.9 359.3 525.2 358.4C516.2 356.8 509.3 350.5 508.3 343L507.7 339H529.5H551.3L550.7 334.1C548.9 318.6 534.2 308.6 519.8 313ZM536 318.5C541.3 321.3 546 328.1 546 333.1C546 334.9 545.1 335 527 335C508.6 335 508 334.9 508 333C508 327.2 515 318.7 520.8 317.4C522.3 317.1 524 316.7 524.5 316.5C526.2 315.9 533.3 317.2 536 318.5Z" fill="#A01F60"/>
<path d="M519.8 313C503.3 317.9 497.3 340.6 508.8 354C515.1 361.5 525.4 364.5 535.7 362.1C541.9 360.6 548.6 355.4 547 353.4C546 352.3 545.2 352.5 542.2 354.5C537.6 357.5 529.9 359.3 525.2 358.4C516.2 356.8 509.3 350.5 508.3 343L507.7 339H529.5H551.3L550.7 334.1C548.9 318.6 534.2 308.6 519.8 313ZM536 318.5C541.3 321.3 546 328.1 546 333.1C546 334.9 545.1 335 527 335C508.6 335 508 334.9 508 333C508 327.2 515 318.7 520.8 317.4C522.3 317.1 524 316.7 524.5 316.5C526.2 315.9 533.3 317.2 536 318.5Z" stroke="black"/>
<path d="M566 337.5V363H568.5H571V337.5V312H568.5H566V337.5Z" fill="#A01F60"/>
<path d="M566 337.5V363H568.5H571V337.5V312H568.5H566V337.5Z" stroke="black"/>
<path d="M595.5 313.5C589.3 315.7 586 320 586 325.9C586 329.6 586.6 331.3 588.5 333.4C591.5 336.6 593.7 337.5 605.3 340C615.7 342.3 619 344.6 619 349.6C619 358.6 603 361.6 590 355C586.6 353.2 586.1 353.2 584.9 354.6C583.8 355.9 584 356.5 586 358C592.7 363.1 608.4 364.3 616.5 360.4C623.9 356.9 626.3 347.9 621.4 342.1C618.8 338.9 614.5 337.3 603 335C599.9 334.4 596 333.1 594.2 332C591.5 330.3 591 329.5 591 326.1C591 319.5 595.4 316.6 605.2 316.7C609.8 316.7 613.1 317.3 615.9 318.7C619.8 320.7 620.1 320.7 621 319C623.7 313.9 605.6 309.9 595.5 313.5Z" fill="#A01F60"/>
<path d="M595.5 313.5C589.3 315.7 586 320 586 325.9C586 329.6 586.6 331.3 588.5 333.4C591.5 336.6 593.7 337.5 605.3 340C615.7 342.3 619 344.6 619 349.6C619 358.6 603 361.6 590 355C586.6 353.2 586.1 353.2 584.9 354.6C583.8 355.9 584 356.5 586 358C592.7 363.1 608.4 364.3 616.5 360.4C623.9 356.9 626.3 347.9 621.4 342.1C618.8 338.9 614.5 337.3 603 335C599.9 334.4 596 333.1 594.2 332C591.5 330.3 591 329.5 591 326.1C591 319.5 595.4 316.6 605.2 316.7C609.8 316.7 613.1 317.3 615.9 318.7C619.8 320.7 620.1 320.7 621 319C623.7 313.9 605.6 309.9 595.5 313.5Z" stroke="black"/>
<path d="M455.91 285.888C454.913 286.273 452.317 287.457 450.154 288.516C447.99 289.576 442.581 292.004 438.118 293.886C433.682 295.816 427.61 298.626 424.655 300.207L419.248 303.076L419.917 304.963L419.917 304.963C420.306 306.001 420.695 307.04 420.832 307.276C420.969 307.513 422.857 306.486 425.238 304.859C427.494 303.304 431.932 300.868 435.001 299.412C441.79 296.313 458.482 287.939 458.498 287.677C458.475 287.564 458.332 286.952 458.099 286.329C457.741 285.272 457.592 285.232 455.91 285.888Z" fill="#A01F60"/>
<path d="M455.91 285.888C454.913 286.273 452.317 287.457 450.154 288.516C447.99 289.576 442.581 292.004 438.118 293.886C433.682 295.816 427.61 298.626 424.655 300.207L419.248 303.076L419.917 304.963L419.917 304.963C420.306 306.001 420.695 307.04 420.832 307.276C420.969 307.513 422.857 306.486 425.238 304.859C427.494 303.304 431.932 300.868 435.001 299.412C441.79 296.313 458.482 287.939 458.498 287.677C458.475 287.564 458.332 286.952 458.099 286.329C457.741 285.272 457.592 285.232 455.91 285.888Z" stroke="black"/>
<defs>
<filter id="filter0_d_7:67" x="305" y="294.9" width="77" height="76.1" filterUnits="userSpaceOnUse" color-interpolation-filters="sRGB">
<feFlood flood-opacity="0" result="BackgroundImageFix"/>
<feColorMatrix in="SourceAlpha" type="matrix" values="0 0 0 0 0 0 0 0 0 0 0 0 0 0 0 0 0 0 127 0" result="hardAlpha"/>
<feOffset dy="4"/>
<feGaussianBlur stdDeviation="2"/>
<feComposite in2="hardAlpha" operator="out"/>
<feColorMatrix type="matrix" values="0 0 0 0 0 0 0 0 0 0 0 0 0 0 0 0 0 0 0.25 0"/>
<feBlend mode="normal" in2="BackgroundImageFix" result="effect1_dropShadow_7:67"/>
<feBlend mode="normal" in="SourceGraphic" in2="effect1_dropShadow_7:67" result="shape"/>
</filter>
</defs>
</svg>
